<svg width="20" height="21" xmlns="http://www.w3.org/2000/svg" xmlns:xlink="http://www.w3.org/1999/xlink" xmlns:svgjs="http://svgjs.com/svgjs" viewBox="0 0.5 20 20" fill="#444"><svg xmlns="http://www.w3.org/2000/svg" width="20" height="21" viewBox="0 1 20 20"><path paint-order="stroke fill markers" fill-rule="evenodd" d="M10 21a9.596 9.596 0 0 0 3.868-.787 10.239 10.239 0 0 0 5.35-5.35A9.614 9.614 0 0 0 20 11c0-1.372-.26-2.66-.782-3.863a10.198 10.198 0 0 0-2.166-3.19 10.188 10.188 0 0 0-3.194-2.165A9.652 9.652 0 0 0 9.99 1c-1.359 0-2.641.26-3.848.782a10.188 10.188 0 0 0-3.195 2.166A10.203 10.203 0 0 0 .782 7.137 9.614 9.614 0 0 0 0 11c0 1.372.262 2.66.787 3.863a10.263 10.263 0 0 0 2.166 3.184c.919.92 1.982 1.641 3.189 2.166A9.572 9.572 0 0 0 10 21zm0-1.842c-1.125 0-2.181-.21-3.169-.632a8.18 8.18 0 0 1-2.598-1.75A8.108 8.108 0 0 1 2.49 14.18a8.065 8.065 0 0 1-.628-3.18c0-1.124.21-2.18.628-3.168a8.166 8.166 0 0 1 4.336-4.357 7.946 7.946 0 0 1 3.164-.632c1.138 0 2.2.21 3.184.632a8.216 8.216 0 0 1 4.352 4.357A7.98 7.98 0 0 1 18.158 11a7.825 7.825 0 0 1-.627 3.179 8.291 8.291 0 0 1-1.75 2.598 8.122 8.122 0 0 1-2.592 1.749 8.035 8.035 0 0 1-3.19.632zM8.97 13.963c.74 0 1.418-.182 2.032-.545a4.127 4.127 0 0 0 1.466-1.461c.364-.61.545-1.29.545-2.037 0-.741-.181-1.418-.545-2.032a4.155 4.155 0 0 0-1.466-1.471 3.885 3.885 0 0 0-2.032-.55c-.74 0-1.418.183-2.032.55a4.199 4.199 0 0 0-1.471 1.47 3.888 3.888 0 0 0-.55 2.033c0 .74.183 1.418.55 2.032a4.156 4.156 0 0 0 1.471 1.466 3.914 3.914 0 0 0 2.032.545zm0-1.379c-.487 0-.93-.121-1.332-.365a2.82 2.82 0 0 1-.967-.972 2.526 2.526 0 0 1-.366-1.327c0-.48.122-.923.366-1.327.243-.405.565-.727.967-.968.401-.24.845-.36 1.332-.36.48 0 .92.12 1.322.36.401.24.724.561.967.962.244.402.365.846.365 1.333 0 .48-.121.922-.365 1.327a2.825 2.825 0 0 1-.967.972 2.5 2.5 0 0 1-1.322.365zm5.226 3.488a.82.82 0 0 0 .613-.247.873.873 0 0 0 .241-.638.76.76 0 0 0-.077-.334.936.936 0 0 0-.21-.283l-2.995-3.025-1.306 1.214 3.014 3.004c.2.206.44.309.72.309z"/></svg></svg>