<svg width="20" height="21" xmlns="http://www.w3.org/2000/svg" xmlns:xlink="http://www.w3.org/1999/xlink" xmlns:svgjs="http://svgjs.com/svgjs" viewBox="0 0.5 20 20" fill="#444"><svg xmlns="http://www.w3.org/2000/svg" width="20" height="21" viewBox="0 1 20 20"><path paint-order="stroke fill markers" fill-rule="evenodd" d="M10 21a9.598 9.598 0 0 0 3.868-.787 10.242 10.242 0 0 0 5.35-5.35A9.619 9.619 0 0 0 20 11c0-1.372-.26-2.66-.782-3.863a10.204 10.204 0 0 0-2.166-3.19 10.184 10.184 0 0 0-3.194-2.165A9.651 9.651 0 0 0 9.99 1c-1.358 0-2.64.26-3.848.782a10.183 10.183 0 0 0-3.194 2.166A10.204 10.204 0 0 0 .782 7.137 9.614 9.614 0 0 0 0 11c0 1.372.262 2.66.787 3.863a10.257 10.257 0 0 0 2.165 3.184c.92.92 1.983 1.641 3.19 2.166A9.573 9.573 0 0 0 10 21zm0-1.842c-1.125 0-2.181-.21-3.169-.632a8.184 8.184 0 0 1-2.598-1.75A8.113 8.113 0 0 1 2.49 14.18a8.065 8.065 0 0 1-.627-3.18c0-1.124.21-2.18.627-3.168a8.171 8.171 0 0 1 4.337-4.357 7.946 7.946 0 0 1 3.164-.632c1.138 0 2.2.21 3.184.632a8.212 8.212 0 0 1 4.352 4.357A7.98 7.98 0 0 1 18.158 11a7.835 7.835 0 0 1-.627 3.179 8.297 8.297 0 0 1-1.75 2.598 8.122 8.122 0 0 1-2.592 1.749 8.034 8.034 0 0 1-3.19.632zm-3.796-5.442h7.602a.83.83 0 0 0 .571-.195.666.666 0 0 0 .222-.525.698.698 0 0 0-.222-.535.805.805 0 0 0-.57-.206H6.203a.79.79 0 0 0-.561.206.698.698 0 0 0-.221.535c0 .22.074.394.22.525.148.13.335.195.562.195zm-1.379-3.24h10.36c.24 0 .432-.066.576-.196a.673.673 0 0 0 .216-.525.706.706 0 0 0-.216-.535c-.144-.137-.336-.206-.576-.206H4.825a.804.804 0 0 0-.571.206.696.696 0 0 0-.221.535c0 .22.073.394.221.525a.83.83 0 0 0 .571.195z"/></svg></svg>