<svg width="20" height="21" xmlns="http://www.w3.org/2000/svg" xmlns:xlink="http://www.w3.org/1999/xlink" xmlns:svgjs="http://svgjs.com/svgjs" viewBox="0 0.5 20 20" fill="#444"><svg xmlns="http://www.w3.org/2000/svg" width="20" height="21" viewBox="0 1 20 20"><path paint-order="stroke fill markers" fill-rule="evenodd" d="M10 21a9.596 9.596 0 0 0 3.868-.787 10.239 10.239 0 0 0 5.35-5.35A9.614 9.614 0 0 0 20 11c0-1.372-.26-2.66-.782-3.863a10.198 10.198 0 0 0-2.166-3.19 10.188 10.188 0 0 0-3.194-2.165A9.652 9.652 0 0 0 9.99 1c-1.359 0-2.641.26-3.848.782a10.188 10.188 0 0 0-3.195 2.166A10.203 10.203 0 0 0 .782 7.137 9.614 9.614 0 0 0 0 11c0 1.372.262 2.66.787 3.863a10.263 10.263 0 0 0 2.166 3.184c.919.92 1.982 1.641 3.189 2.166A9.572 9.572 0 0 0 10 21zm0-1.842c-1.125 0-2.181-.21-3.169-.632a8.18 8.18 0 0 1-2.598-1.75A8.108 8.108 0 0 1 2.49 14.18a8.065 8.065 0 0 1-.628-3.18c0-1.124.21-2.18.628-3.168a8.166 8.166 0 0 1 4.336-4.357 7.946 7.946 0 0 1 3.164-.632c1.138 0 2.2.21 3.184.632a8.216 8.216 0 0 1 4.352 4.357A7.98 7.98 0 0 1 18.158 11a7.825 7.825 0 0 1-.627 3.179 8.291 8.291 0 0 1-1.75 2.598 8.122 8.122 0 0 1-2.592 1.749 8.035 8.035 0 0 1-3.19.632zM5.267 8.51h9.496a.803.803 0 0 0 .561-.2.681.681 0 0 0 .221-.53.685.685 0 0 0-.221-.525.791.791 0 0 0-.56-.206H5.266a.805.805 0 0 0-.57.206.684.684 0 0 0-.222.525c0 .22.074.396.221.53.148.133.338.2.571.2zm0 3.22h9.496a.803.803 0 0 0 .561-.2.681.681 0 0 0 .221-.53.681.681 0 0 0-.221-.53.803.803 0 0 0-.56-.2H5.266a.817.817 0 0 0-.57.2.68.68 0 0 0-.222.53c0 .22.074.396.221.53.148.133.338.2.571.2zm0 3.23h9.496a.791.791 0 0 0 .561-.205.698.698 0 0 0 .221-.535.682.682 0 0 0-.221-.53.803.803 0 0 0-.56-.2H5.266a.817.817 0 0 0-.57.2.68.68 0 0 0-.222.53c0 .22.074.398.221.535a.805.805 0 0 0 .571.206z"/></svg></svg>